<?xml version="1.0" encoding="UTF-8" standalone="no"?>
<!-- Created with Inkscape (http://www.inkscape.org/) -->

<svg
   xmlns:dc="http://purl.org/dc/elements/1.1/"
   xmlns:cc="http://creativecommons.org/ns#"
   xmlns:rdf="http://www.w3.org/1999/02/22-rdf-syntax-ns#"
   xmlns:svg="http://www.w3.org/2000/svg"
   xmlns="http://www.w3.org/2000/svg"
   xmlns:sodipodi="http://sodipodi.sourceforge.net/DTD/sodipodi-0.dtd"
   xmlns:inkscape="http://www.inkscape.org/namespaces/inkscape"
   width="210mm"
   height="297mm"
   id="svg7166"
   version="1.1"
   inkscape:version="0.48.5 r10040"
   sodipodi:docname="schema_loan_2_rework.svg"
   inkscape:export-filename="/users/Etu8/3407488/git/PSAR/Image/Loan/schema_loan_2_rework.png"
   inkscape:export-xdpi="90"
   inkscape:export-ydpi="90">
  <defs
     id="defs7168">
    <marker
       style="overflow:visible"
       id="Arrow2Mendp"
       refX="0"
       refY="0"
       orient="auto"
       inkscape:stockid="Arrow2Mendp">
      <path
         inkscape:connector-curvature="0"
         transform="scale(-0.6,-0.6)"
         d="M 8.7185878,4.0337352 -2.2072895,0.01601326 8.7185884,-4.0017078 c -1.7454984,2.3720609 -1.7354408,5.6174519 -6e-7,8.035443 z"
         style="fill:#0000ff;fill-rule:evenodd;stroke:#0000ff;stroke-width:0.625;stroke-linejoin:round"
         id="path6869" />
    </marker>
    <marker
       style="overflow:visible"
       id="Arrow2MendRt"
       refX="0"
       refY="0"
       orient="auto"
       inkscape:stockid="Arrow2MendRt">
      <path
         inkscape:connector-curvature="0"
         transform="scale(-0.6,-0.6)"
         d="M 8.7185878,4.0337352 -2.2072895,0.01601326 8.7185884,-4.0017078 c -1.7454984,2.3720609 -1.7354408,5.6174519 -6e-7,8.035443 z"
         style="fill:#00ff00;fill-rule:evenodd;stroke:#00ff00;stroke-width:0.625;stroke-linejoin:round"
         id="path6752" />
    </marker>
    <marker
       style="overflow:visible"
       id="Arrow2Mend9m"
       refX="0"
       refY="0"
       orient="auto"
       inkscape:stockid="Arrow2Mend9m">
      <path
         inkscape:connector-curvature="0"
         transform="scale(-0.6,-0.6)"
         d="M 8.7185878,4.0337352 -2.2072895,0.01601326 8.7185884,-4.0017078 c -1.7454984,2.3720609 -1.7354408,5.6174519 -6e-7,8.035443 z"
         style="fill:#ff0000;fill-rule:evenodd;stroke:#ff0000;stroke-width:0.625;stroke-linejoin:round"
         id="path6639" />
    </marker>
    <marker
       style="overflow:visible"
       id="marker7190"
       refX="0"
       refY="0"
       orient="auto"
       inkscape:stockid="Arrow2Mend9m">
      <path
         inkscape:connector-curvature="0"
         transform="scale(-0.6,-0.6)"
         d="M 8.7185878,4.0337352 -2.2072895,0.01601326 8.7185884,-4.0017078 c -1.7454984,2.3720609 -1.7354408,5.6174519 -6e-7,8.035443 z"
         style="fill:#ff0000;fill-rule:evenodd;stroke:#ff0000;stroke-width:0.625;stroke-linejoin:round"
         id="path7192" />
    </marker>
    <marker
       style="overflow:visible"
       id="marker7194"
       refX="0"
       refY="0"
       orient="auto"
       inkscape:stockid="Arrow2MendRt">
      <path
         inkscape:connector-curvature="0"
         transform="scale(-0.6,-0.6)"
         d="M 8.7185878,4.0337352 -2.2072895,0.01601326 8.7185884,-4.0017078 c -1.7454984,2.3720609 -1.7354408,5.6174519 -6e-7,8.035443 z"
         style="fill:#00ff00;fill-rule:evenodd;stroke:#00ff00;stroke-width:0.625;stroke-linejoin:round"
         id="path7196" />
    </marker>
    <marker
       style="overflow:visible"
       id="marker7198"
       refX="0"
       refY="0"
       orient="auto"
       inkscape:stockid="Arrow2Mendp">
      <path
         inkscape:connector-curvature="0"
         transform="scale(-0.6,-0.6)"
         d="M 8.7185878,4.0337352 -2.2072895,0.01601326 8.7185884,-4.0017078 c -1.7454984,2.3720609 -1.7354408,5.6174519 -6e-7,8.035443 z"
         style="fill:#0000ff;fill-rule:evenodd;stroke:#0000ff;stroke-width:0.625;stroke-linejoin:round"
         id="path7200" />
    </marker>
  </defs>
  <sodipodi:namedview
     id="base"
     pagecolor="#ffffff"
     bordercolor="#666666"
     borderopacity="1.0"
     inkscape:pageopacity="0.0"
     inkscape:pageshadow="2"
     inkscape:zoom="0.7"
     inkscape:cx="-38.297473"
     inkscape:cy="512.69783"
     inkscape:document-units="px"
     inkscape:current-layer="layer1"
     showgrid="false"
     inkscape:window-width="1920"
     inkscape:window-height="1014"
     inkscape:window-x="0"
     inkscape:window-y="27"
     inkscape:window-maximized="1" />
  <metadata
     id="metadata7171">
    <rdf:RDF>
      <cc:Work
         rdf:about="">
        <dc:format>image/svg+xml</dc:format>
        <dc:type
           rdf:resource="http://purl.org/dc/dcmitype/StillImage" />
        <dc:title></dc:title>
      </cc:Work>
    </rdf:RDF>
  </metadata>
  <g
     inkscape:label="Calque 1"
     inkscape:groupmode="layer"
     id="layer1">
    <a
       transform="translate(5.4843155,24.820701)"
       id="a3819">
      <path
         sodipodi:type="arc"
         style="fill:#ffffff;fill-rule:evenodd;stroke:#000000;stroke-width:1px;stroke-linecap:butt;stroke-linejoin:miter;stroke-opacity:1"
         id="path2985"
         sodipodi:cx="273.57144"
         sodipodi:cy="303.79074"
         sodipodi:rx="69.285713"
         sodipodi:ry="64.285713"
         d="m 342.85715,303.79074 c 0,35.50402 -31.02027,64.28571 -69.28571,64.28571 -38.26544,0 -69.28571,-28.78169 -69.28571,-64.28571 0,-35.50402 31.02027,-64.28571 69.28571,-64.28571 38.26544,0 69.28571,28.78169 69.28571,64.28571 z"
         transform="matrix(1.1818673,0,0,1.2737903,-44.182264,-149.46066)" />
    </a>
    <flowRoot
       transform="translate(16.912887,-2.3221585)"
       style="font-size:40px;font-style:normal;font-weight:normal;line-height:125%;letter-spacing:0px;word-spacing:0px;fill:#000000;fill-opacity:1;stroke:none;font-family:Sans"
       id="flowRoot3784"
       xml:space="preserve"><flowRegion
         id="flowRegion3786"><rect
           y="239.50504"
           x="244.28572"
           height="74.285713"
           width="60"
           id="rect3788" /></flowRegion><flowPara
         id="flowPara3790">S1</flowPara></flowRoot>    <a
       id="a3819-9"
       transform="translate(-100.80143,491.10641)">
      <path
         sodipodi:type="arc"
         style="fill:#ffffff;fill-rule:evenodd;stroke:#000000;stroke-width:1px;stroke-linecap:butt;stroke-linejoin:miter;stroke-opacity:1"
         id="path2985-1"
         sodipodi:cx="273.57144"
         sodipodi:cy="303.79074"
         sodipodi:rx="69.285713"
         sodipodi:ry="64.285713"
         d="m 342.85715,303.79074 c 0,35.50402 -31.02027,64.28571 -69.28571,64.28571 -38.26544,0 -69.28571,-28.78169 -69.28571,-64.28571 0,-35.50402 31.02027,-64.28571 69.28571,-64.28571 38.26544,0 69.28571,28.78169 69.28571,64.28571 z"
         transform="matrix(1.1818673,0,0,1.2737903,-44.182264,-149.46066)" />
    </a>
    <flowRoot
       transform="translate(-89.372847,463.96355)"
       style="font-size:40px;font-style:normal;font-weight:normal;line-height:125%;letter-spacing:0px;word-spacing:0px;fill:#000000;fill-opacity:1;stroke:none;font-family:Sans"
       id="flowRoot3784-2"
       xml:space="preserve"><flowRegion
         id="flowRegion3786-7"><rect
           y="239.50504"
           x="244.28572"
           height="74.285713"
           width="60"
           id="rect3788-0" /></flowRegion><flowPara
         id="flowPara3790-9">S2</flowPara></flowRoot>    <a
       id="a3819-3"
       transform="translate(323.48429,356.8207)">
      <path
         sodipodi:type="arc"
         style="fill:#ffffff;fill-rule:evenodd;stroke:#000000;stroke-width:1px;stroke-linecap:butt;stroke-linejoin:miter;stroke-opacity:1"
         id="path2985-6"
         sodipodi:cx="273.57144"
         sodipodi:cy="303.79074"
         sodipodi:rx="69.285713"
         sodipodi:ry="64.285713"
         d="m 342.85715,303.79074 c 0,35.50402 -31.02027,64.28571 -69.28571,64.28571 -38.26544,0 -69.28571,-28.78169 -69.28571,-64.28571 0,-35.50402 31.02027,-64.28571 69.28571,-64.28571 38.26544,0 69.28571,28.78169 69.28571,64.28571 z"
         transform="matrix(1.1818673,0,0,1.2737903,-44.182264,-149.46066)" />
    </a>
    <flowRoot
       transform="translate(334.91286,329.67784)"
       style="font-size:40px;font-style:normal;font-weight:normal;line-height:125%;letter-spacing:0px;word-spacing:0px;fill:#000000;fill-opacity:1;stroke:none;font-family:Sans"
       id="flowRoot3784-0"
       xml:space="preserve"><flowRegion
         id="flowRegion3786-6"><rect
           y="239.50504"
           x="244.28572"
           height="74.285713"
           width="60"
           id="rect3788-2" /></flowRegion><flowPara
         id="flowPara3790-6">S3</flowPara></flowRoot>    <path
       transform="matrix(0.59574465,0,0,0.40579711,468.06791,466.88684)"
       d="m 271.42858,430.21933 a 33.57143,49.285713 0 1 1 -67.14286,0 33.57143,49.285713 0 1 1 67.14286,0 z"
       sodipodi:ry="49.285713"
       sodipodi:rx="33.57143"
       sodipodi:cy="430.21933"
       sodipodi:cx="237.85715"
       id="path3954"
       style="fill:#ff0000;fill-opacity:1;stroke:none"
       sodipodi:type="arc" />
    <path
       transform="matrix(0.59574465,0,0,0.40579711,5.2107645,596.88684)"
       d="m 271.42858,430.21933 a 33.57143,49.285713 0 1 1 -67.14286,0 33.57143,49.285713 0 1 1 67.14286,0 z"
       sodipodi:ry="49.285713"
       sodipodi:rx="33.57143"
       sodipodi:cy="430.21933"
       sodipodi:cx="237.85715"
       id="path3954-1"
       style="fill:#00ff00;fill-opacity:1;stroke:none"
       sodipodi:type="arc" />
    <path
       transform="matrix(0.59574465,0,0,0.40579711,129.49648,42.601117)"
       d="m 271.42858,430.21933 a 33.57143,49.285713 0 1 1 -67.14286,0 33.57143,49.285713 0 1 1 67.14286,0 z"
       sodipodi:ry="49.285713"
       sodipodi:rx="33.57143"
       sodipodi:cy="430.21933"
       sodipodi:cx="237.85715"
       id="path3954-8"
       style="fill:#0000ff;fill-opacity:1;stroke:none"
       sodipodi:type="arc" />
    <path
       inkscape:connector-curvature="0"
       id="path3983"
       d="M 136.22367,656.44352 C 229.07848,327.83205 229.07848,327.83205 229.07848,327.83205"
       style="fill:none;stroke:#0000ff;stroke-width:5.05014896;stroke-linecap:butt;stroke-linejoin:miter;stroke-miterlimit:4;stroke-opacity:1;stroke-dasharray:15.1504467, 15.1504467;stroke-dashoffset:0;marker-start:none;marker-end:url(#Arrow2Mendp)" />
    <path
       inkscape:connector-curvature="0"
       id="path3983-0"
       d="M 267.30778,341.99826 C 181.08356,639.5442 181.08356,639.5442 181.08356,639.5442"
       style="fill:none;stroke:#00ff00;stroke-width:4.63;stroke-linecap:butt;stroke-linejoin:miter;stroke-miterlimit:4;stroke-opacity:1;stroke-dasharray:13.89,13.89;stroke-dashoffset:0;marker-start:none;marker-end:url(#Arrow2MendRt);marker-mid:none" />
    <path
       inkscape:connector-curvature="0"
       id="path3983-0-7"
       d="m 308.68221,345.23455 c -88.97793,300.2963 -88.97793,300.2963 -88.97793,300.2963"
       style="fill:none;stroke:#ff0000;stroke-width:4.72551775;stroke-linecap:butt;stroke-linejoin:miter;stroke-miterlimit:4;stroke-opacity:1;stroke-dasharray:14.17655369, 14.17655369;stroke-dashoffset:0;marker-start:none;marker-end:url(#Arrow2Mend9m)" />
    <path
       inkscape:connector-curvature="0"
       id="path3983-0-7-0"
       d="M 252.21239,767.68858 C 545.6932,664.34292 545.6932,664.34292 545.6932,664.34292"
       style="fill:none;stroke:#ff0000;stroke-width:5.03464746;stroke-linecap:butt;stroke-linejoin:miter;stroke-miterlimit:4;stroke-opacity:1;stroke-dasharray:15.10394277, 15.10394277;stroke-dashoffset:0;marker-start:none;marker-end:url(#Arrow2Mend9m)" />
    <path
       inkscape:connector-curvature="0"
       id="path3983-0-0"
       d="M 520.01094,621.77502 C 268.27406,712.56597 268.27406,712.56597 268.27406,712.56597"
       style="fill:none;stroke:#00ff00;stroke-width:4.37040567;stroke-linecap:butt;stroke-linejoin:miter;stroke-miterlimit:4;stroke-opacity:1;stroke-dasharray:13.11121856, 13.11121856;stroke-dashoffset:0;marker-start:none;marker-end:url(#Arrow2MendRt)" />
    <path
       inkscape:connector-curvature="0"
       id="path3983-5"
       d="M 521.37141,571.07584 C 250.08712,670.85987 250.08712,670.85987 250.08712,670.85987"
       style="fill:none;stroke:#0000ff;stroke-width:4.75667143;stroke-linecap:butt;stroke-linejoin:miter;stroke-miterlimit:4;stroke-opacity:1;stroke-dasharray:14.27001457, 14.27001457;stroke-dashoffset:0;marker-start:none;marker-end:url(#Arrow2Mendp)" />
    <text
       xml:space="preserve"
       style="font-size:26.1367588px;font-style:normal;font-weight:normal;line-height:125%;letter-spacing:0px;word-spacing:0px;fill:#000000;fill-opacity:1;stroke:none;font-family:Sans"
       x="261.58279"
       y="123.7416"
       id="text7030"
       sodipodi:linespacing="125%"
       transform="scale(0.80126702,1.2480234)"><tspan
         sodipodi:role="line"
         id="tspan7032"
         x="261.58279"
         y="123.7416">S1 requiert</tspan></text>
    <text
       xml:space="preserve"
       style="font-size:26.1367588px;font-style:normal;font-weight:normal;line-height:125%;letter-spacing:0px;word-spacing:0px;fill:#000000;fill-opacity:1;stroke:none;font-family:Sans"
       x="78.023438"
       y="690.60895"
       id="text7030-4"
       sodipodi:linespacing="125%"
       transform="scale(0.80126702,1.2480234)"><tspan
         sodipodi:role="line"
         id="tspan7032-6"
         x="78.023438"
         y="690.60895">S2 requiert</tspan></text>
    <text
       xml:space="preserve"
       style="font-size:26.1367588px;font-style:normal;font-weight:normal;line-height:125%;letter-spacing:0px;word-spacing:0px;fill:#000000;fill-opacity:1;stroke:none;font-family:Sans"
       x="627.15375"
       y="585.29962"
       id="text7030-6"
       sodipodi:linespacing="125%"
       transform="scale(0.80126702,1.2480234)"
       inkscape:export-filename="/users/Etu8/3407488/git/PSAR/Image/Loan/path3954-8-9-7.png"
       inkscape:export-xdpi="90"
       inkscape:export-ydpi="90"><tspan
         sodipodi:role="line"
         id="tspan7032-3"
         x="627.15375"
         y="585.29962">S3 requiert</tspan></text>
    <path
       transform="matrix(0.59574465,0,0,0.40579711,216.63933,-30.256019)"
       d="m 271.42858,430.21933 a 33.57143,49.285713 0 1 1 -67.14286,0 33.57143,49.285713 0 1 1 67.14286,0 z"
       sodipodi:ry="49.285713"
       sodipodi:rx="33.57143"
       sodipodi:cy="430.21933"
       sodipodi:cx="237.85715"
       id="path3954-8-9"
       style="fill:#0000ff;fill-opacity:1;stroke:none"
       sodipodi:type="arc" />
    <path
       transform="matrix(0.59574465,0,0,0.40579711,267.49647,-29.398879)"
       d="m 271.42858,430.21933 a 33.57143,49.285713 0 1 1 -67.14286,0 33.57143,49.285713 0 1 1 67.14286,0 z"
       sodipodi:ry="49.285713"
       sodipodi:rx="33.57143"
       sodipodi:cy="430.21933"
       sodipodi:cx="237.85715"
       id="path3954-1-9"
       style="fill:#00ff00;fill-opacity:1;stroke:none"
       sodipodi:type="arc" />
    <path
       transform="matrix(0.59574465,0,0,0.40579711,68.067909,676.88684)"
       d="m 271.42858,430.21933 a 33.57143,49.285713 0 1 1 -67.14286,0 33.57143,49.285713 0 1 1 67.14286,0 z"
       sodipodi:ry="49.285713"
       sodipodi:rx="33.57143"
       sodipodi:cy="430.21933"
       sodipodi:cx="237.85715"
       id="path3954-1-5"
       style="fill:#00ff00;fill-opacity:1;stroke:none"
       sodipodi:type="arc" />
    <path
       transform="matrix(0.59574465,0,0,0.40579711,508.06789,548.3154)"
       d="m 271.42858,430.21933 a 33.57143,49.285713 0 1 1 -67.14286,0 33.57143,49.285713 0 1 1 67.14286,0 z"
       sodipodi:ry="49.285713"
       sodipodi:rx="33.57143"
       sodipodi:cy="430.21933"
       sodipodi:cx="237.85715"
       id="path3954-2"
       style="fill:#ff0000;fill-opacity:1;stroke:none"
       sodipodi:type="arc"
       inkscape:export-filename="/users/Etu8/3407488/git/PSAR/Image/Loan/path3954-8-9-7.png"
       inkscape:export-xdpi="90"
       inkscape:export-ydpi="90" />
    <rect
       style="fill:none;stroke:#ff0000;stroke-width:4.00725746;stroke-miterlimit:4;stroke-opacity:1;stroke-dasharray:none"
       id="rect8887"
       width="299.53735"
       height="293.90375"
       x="28.331728"
       y="597.26953" />
    <text
       xml:space="preserve"
       style="font-size:38.78522873000000004px;font-style:normal;font-weight:normal;line-height:125%;letter-spacing:0px;word-spacing:0px;fill:#ff0000;fill-opacity:1;stroke:#ff0000;font-family:Sans;stroke-opacity:1"
       x="40.728508"
       y="744.36768"
       id="text8889"
       sodipodi:linespacing="125%"
       transform="scale(0.79385437,1.2596769)"><tspan
         sodipodi:role="line"
         id="tspan8891"
         x="40.728508"
         y="744.36768">En section critique</tspan></text>
    <path
       transform="matrix(0.59574465,0,0,0.40579711,556.86931,549.209)"
       d="m 271.42858,430.21933 a 33.57143,49.285713 0 1 1 -67.14286,0 33.57143,49.285713 0 1 1 67.14286,0 z"
       sodipodi:ry="49.285713"
       sodipodi:rx="33.57143"
       sodipodi:cy="430.21933"
       sodipodi:cx="237.85715"
       id="path3954-8-9-7"
       style="fill:#0000ff;fill-opacity:1;stroke:none"
       sodipodi:type="arc"
       inkscape:export-xdpi="90"
       inkscape:export-ydpi="90" />
  </g>
</svg>
